<svg width="48" height="48" viewBox="0 0 48 48" fill="none" xmlns="http://www.w3.org/2000/svg">
<path d="M43 39V24H39V39C39 44 43 48 48 48V44C45.2 44 43 41.8 43 39Z" fill="#3F51B5"/>
<path d="M24 43C34.4934 43 43 34.4934 43 24C43 13.5066 34.4934 5 24 5C13.5066 5 5 13.5066 5 24C5 34.4934 13.5066 43 24 43Z" fill="#90A4AE"/>
<path d="M24 26C25.1046 26 26 25.1046 26 24C26 22.8954 25.1046 22 24 22C22.8954 22 22 22.8954 22 24C22 25.1046 22.8954 26 24 26Z" fill="#37474F"/>
<path d="M24 19C26.7614 19 29 16.7614 29 14C29 11.2386 26.7614 9 24 9C21.2386 9 19 11.2386 19 14C19 16.7614 21.2386 19 24 19Z" fill="#253278"/>
<path d="M24 39C26.7614 39 29 36.7614 29 34C29 31.2386 26.7614 29 24 29C21.2386 29 19 31.2386 19 34C19 36.7614 21.2386 39 24 39Z" fill="#253278"/>
<path d="M34 29C36.7614 29 39 26.7614 39 24C39 21.2386 36.7614 19 34 19C31.2386 19 29 21.2386 29 24C29 26.7614 31.2386 29 34 29Z" fill="#253278"/>
<path d="M14 29C16.7614 29 19 26.7614 19 24C19 21.2386 16.7614 19 14 19C11.2386 19 9 21.2386 9 24C9 26.7614 11.2386 29 14 29Z" fill="#253278"/>
</svg>
