<svg width="32" height="32" viewBox="0 0 32 32" fill="none" xmlns="http://www.w3.org/2000/svg">
<path d="M17.0086 4.47134H14.9913C14.1345 4.47134 13.4399 5.1659 13.4399 6.02268V25.9773C13.4399 26.8341 14.1345 27.5287 14.9913 27.5287H17.0086C17.8654 27.5287 18.5599 26.8341 18.5599 25.9773V6.02268C18.5599 5.1659 17.8654 4.47134 17.0086 4.47134Z" stroke="#1E2635" stroke-width="0.666667" stroke-linecap="round" stroke-linejoin="round"/>
<path d="M26.116 17.366H24.0987C23.2419 17.366 22.5474 18.0606 22.5474 18.9173V25.9773C22.5474 26.8341 23.2419 27.5287 24.0987 27.5287H26.116C26.9728 27.5287 27.6674 26.8341 27.6674 25.9773V18.9173C27.6674 18.0606 26.9728 17.366 26.116 17.366Z" stroke="#1E2635" stroke-width="0.666667" stroke-linecap="round" stroke-linejoin="round"/>
<path d="M7.90216 11.048H5.88483C5.02805 11.048 4.3335 11.7426 4.3335 12.5993V25.9773C4.3335 26.8341 5.02805 27.5287 5.88483 27.5287H7.90216C8.75894 27.5287 9.4535 26.8341 9.4535 25.9773V12.5993C9.4535 11.7426 8.75894 11.048 7.90216 11.048Z" stroke="#1E2635" stroke-width="0.666667" stroke-linecap="round" stroke-linejoin="round"/>
</svg>
