<svg width="32" height="32" viewBox="0 0 41 40" fill="none" xmlns="http://www.w3.org/2000/svg">
<path d="M31.5249 37.8791C31.4276 37.8792 31.3325 37.851 31.2509 37.7981L20.2319 30.6011L9.21187 37.7981C9.12697 37.8536 9.0272 37.882 8.92579 37.8794C8.82439 37.8769 8.72615 37.8436 8.64412 37.7839C8.5621 37.7242 8.50016 37.641 8.46654 37.5453C8.43292 37.4496 8.4292 37.346 8.45588 37.2481L11.8929 24.5441L1.64588 16.2871C1.56638 16.2239 1.50807 16.1379 1.47875 16.0406C1.44943 15.9433 1.4505 15.8394 1.48181 15.7428C1.51312 15.6462 1.57317 15.5614 1.65396 15.4998C1.73474 15.4382 1.83239 15.4027 1.93388 15.3981L15.0799 14.7421L19.7659 2.44409C19.9119 2.05509 20.5529 2.05509 20.6999 2.44409L25.3849 14.7421L38.5309 15.3981C38.6321 15.4032 38.7293 15.439 38.8098 15.5007C38.8902 15.5623 38.95 15.647 38.9812 15.7434C39.0124 15.8398 39.0136 15.9434 38.9846 16.0405C38.9557 16.1376 38.8979 16.2236 38.8189 16.2871L28.5719 24.5441L32.0089 37.2481C32.029 37.3224 32.0318 37.4003 32.0169 37.4758C32.002 37.5513 31.9699 37.6223 31.9231 37.6834C31.8762 37.7445 31.8159 37.7939 31.7469 37.8278C31.6778 37.8618 31.6018 37.8793 31.5249 37.8791ZM20.2319 29.5051C20.3288 29.5051 20.4237 29.5332 20.5049 29.5861L30.6989 36.2431L27.5189 24.4901C27.4937 24.3962 27.4962 24.297 27.5262 24.2046C27.5562 24.1121 27.6124 24.0303 27.6879 23.9691L37.1669 16.3301L25.0069 15.7241C24.9102 15.719 24.817 15.686 24.7387 15.629C24.6605 15.572 24.6004 15.4936 24.5659 15.4031L20.2319 4.02609L15.8969 15.4031C15.8628 15.4938 15.8028 15.5726 15.7245 15.6297C15.6461 15.6867 15.5527 15.7195 15.4559 15.7241L3.29588 16.3301L12.7759 23.9691C12.8515 24.0302 12.9077 24.112 12.9377 24.2045C12.9677 24.297 12.9702 24.3962 12.9449 24.4901L9.76488 36.2431L19.9589 29.5861C20.0401 29.5332 20.1349 29.5051 20.2319 29.5051Z" fill="#1E2635"/>
</svg>
