<svg width="32" height="32" viewBox="0 0 48 48" fill="none" xmlns="http://www.w3.org/2000/svg">
<path d="M39.2299 26.0001C39.317 25.3369 39.3637 24.669 39.3699 24.0001C39.3637 23.3312 39.317 22.6633 39.2299 22.0001L43.5599 18.6101C43.7554 18.4607 43.889 18.2445 43.9351 18.0028C43.9813 17.7611 43.9367 17.5109 43.8099 17.3001L39.7099 10.1901C39.5911 9.9768 39.3985 9.81434 39.1682 9.73329C38.938 9.65224 38.686 9.65821 38.4599 9.75007L33.3499 11.8101C32.2866 10.9986 31.1238 10.3264 29.8899 9.81007L29.1199 4.38007C29.0859 4.13979 28.9657 3.92006 28.7818 3.76183C28.5978 3.60361 28.3625 3.51768 28.1199 3.52007H19.8999C19.6572 3.51768 19.422 3.60361 19.238 3.76183C19.054 3.92006 18.9338 4.13979 18.8999 4.38007L18.1299 9.81007C16.8944 10.3232 15.7312 10.9956 14.6699 11.8101L9.53987 9.75007C9.31372 9.65821 9.06177 9.65224 8.83152 9.73329C8.60128 9.81434 8.40862 9.9768 8.28987 10.1901L4.18987 17.3001C4.06308 17.5109 4.01848 17.7611 4.0646 18.0028C4.11073 18.2445 4.24434 18.4607 4.43987 18.6101L8.75987 22.0001C8.6731 22.6633 8.62634 23.3312 8.61987 24.0001C8.626 24.669 8.67276 25.3369 8.75987 26.0001L4.43987 29.3901C4.24434 29.5394 4.11073 29.7556 4.0646 29.9973C4.01848 30.239 4.06308 30.4892 4.18987 30.7001L8.28987 37.8101C8.40862 38.0233 8.60128 38.1858 8.83152 38.2668C9.06177 38.3479 9.31372 38.3419 9.53987 38.2501L14.6499 36.1901C15.7132 37.0016 16.876 37.6737 18.1099 38.1901L18.8799 43.6201C18.9138 43.8603 19.034 44.0801 19.218 44.2383C19.402 44.3965 19.6372 44.4825 19.8799 44.4801H28.0799C28.3225 44.4825 28.5578 44.3965 28.7418 44.2383C28.9257 44.0801 29.0459 43.8603 29.0799 43.6201L29.8499 38.1901C31.0854 37.6769 32.2486 37.0046 33.3099 36.1901L38.4199 38.2501C38.646 38.3419 38.898 38.3479 39.1282 38.2668C39.3585 38.1858 39.5511 38.0233 39.6699 37.8101L43.7699 30.7001C43.8967 30.4892 43.9413 30.239 43.8951 29.9973C43.849 29.7556 43.7154 29.5394 43.5199 29.3901L39.2299 26.0001ZM23.9999 31.1801C22.5794 31.182 21.1902 30.7626 20.0082 29.9749C18.8261 29.1871 17.9043 28.0665 17.3593 26.7547C16.8143 25.4429 16.6707 23.9989 16.9466 22.6055C17.2225 21.212 17.9056 19.9317 18.9093 18.9266C19.913 17.9214 21.1924 17.2366 22.5854 16.9588C23.9785 16.6809 25.4227 16.8225 26.7352 17.3657C28.0478 17.9088 29.1697 18.8291 29.9591 20.01C30.7485 21.191 31.1699 22.5796 31.1699 24.0001C31.1712 24.9425 30.9867 25.8759 30.627 26.747C30.2672 27.618 29.7393 28.4096 29.0734 29.0765C28.4074 29.7433 27.6166 30.2724 26.746 30.6333C25.8755 30.9943 24.9423 31.1801 23.9999 31.1801V31.1801Z" stroke="#1E2635" stroke-linecap="round" stroke-linejoin="round"/>
</svg>
